<svg width="319" height="184" viewBox="0 0 319 184" fill="none" xmlns="http://www.w3.org/2000/svg">
<rect width="319" height="184" rx="22" fill="black"/>
<path fill-rule="evenodd" clip-rule="evenodd" d="M219.96 76.4666C231.961 85.9014 244.021 95.3822 259.017 95.9688C275.85 96.6272 290.347 86.7564 304.459 77.1478C306.528 75.7392 308.588 74.3362 310.647 72.9729C313.179 71.2958 315.774 69.6463 318.38 67.99C318.55 67.8822 318.719 67.7743 318.889 67.6664V22C318.889 9.84974 309.039 0 296.889 0H148C151.988 7.00743 156.837 13.8344 161.593 20.5317C164.14 24.1179 166.66 27.6669 169.008 31.1865C179.508 46.9262 194.396 57.6403 209.746 68.6878L210.243 69.0455C213.515 71.4003 216.735 73.9318 219.96 76.4666Z" fill="#5669EC"/>
</svg>
