<svg width="22" height="22" viewBox="0 0 22 22" fill="none" xmlns="http://www.w3.org/2000/svg">
<path d="M22 11C22 4.92438 17.0756 0 11 0C4.92438 0 0 4.92438 0 11C0 16.491 4.02027 21.0416 9.28219 21.8674V14.1825H6.49151V11H9.28219V8.57699C9.28219 5.82246 10.9216 4.29753 13.4351 4.29753C14.6405 4.29753 15.9003 4.51452 15.9003 4.51452V7.22082H14.514C13.1458 7.22082 12.7238 8.07068 12.7238 8.93863V11H15.7737L15.2855 14.1825H12.7238V21.8674C17.9797 21.0416 22 16.491 22 11Z" fill="#1877F2"/>
<path d="M15.2794 14.1827L15.7677 11.0002H12.7178V8.93883C12.7178 8.07088 13.1457 7.22102 14.5079 7.22102H15.8942V4.51472C15.8942 4.51472 14.6345 4.29773 13.429 4.29773C10.9156 4.29773 9.27616 5.82266 9.27616 8.57718V11.0002H6.48547V14.1827H9.27616V21.8676C9.83671 21.958 10.4093 22.0002 10.994 22.0002C11.5786 22.0002 12.1512 21.952 12.7118 21.8676V14.1827H15.2794Z" fill="white"/>
</svg>
